<svg width="43" height="43" viewBox="0 0 43 43" fill="none" xmlns="http://www.w3.org/2000/svg">
<path d="M35.8333 23.2917C35.8333 32.25 29.5625 36.7292 22.1092 39.3271C21.7189 39.4593 21.2949 39.453 20.9087 39.3092C13.4375 36.7292 7.16666 32.25 7.16666 23.2917V10.75C7.16666 10.2748 7.35542 9.8191 7.69142 9.48309C8.02743 9.14709 8.48314 8.95833 8.95832 8.95833C12.5417 8.95833 17.0208 6.80832 20.1383 4.08499C20.5179 3.7607 21.0007 3.58252 21.5 3.58252C21.9992 3.58252 22.4821 3.7607 22.8617 4.08499C25.9971 6.82624 30.4583 8.95833 34.0417 8.95833C34.5168 8.95833 34.9726 9.14709 35.3086 9.48309C35.6446 9.8191 35.8333 10.2748 35.8333 10.75V23.2917Z" stroke="#E50023" stroke-width="2" stroke-linecap="round" stroke-linejoin="round"/>
</svg>
