<svg width="210" height="130" viewBox="0 0 210 130" fill="none" xmlns="http://www.w3.org/2000/svg">
<path d="M21.5663 14.5362L56.5792 18.6869M21.5663 14.5362C20.4897 17.2508 17.9273 23.8098 16.2901 28.3298M21.5663 14.5362L41.9698 12.9171M56.5792 18.6869L194.761 5.87184M56.5792 18.6869C59.1267 24.915 62.7429 32.1847 65.9349 40.5524M194.761 5.87184C196.092 9.56486 199.433 18.2072 202.147 23.2322C205.539 29.5135 210.278 41.5868 206.759 59.7047L199.011 61.646M194.761 5.87184L175.885 4.69157M74.6094 79.8901L72.9841 77.9647C73.3204 65.6301 70.865 54.7007 67.5827 45.1021M74.6094 79.8901L78.706 79.3535V81.2632M74.6094 79.8901H72.7622M78.706 81.2632C78.706 81.2632 80.4932 80.8844 81.6383 80.8844M78.706 81.2632L78.0489 81.4052M81.6383 80.8844C81.6053 81.211 81.5689 81.5426 81.529 81.8787M81.6383 80.8844C82.4589 71.8575 80.3704 60.4578 77.3542 49.7052M199.011 61.646C204.777 36.6177 194.925 28.2255 187.359 9.10718L66.8501 20.9754C69.3597 26.384 72.9016 35.1278 75.9099 44.8201M199.011 61.646C197.385 68.7039 194.517 77.0849 190.006 87.4024L139.165 100.628M7.76084 89.4699L8.90205 87.4655M7.76084 89.4699L8.04614 104.431L8.90205 108.898M7.76084 89.4699L16.6528 91.9003M8.90205 87.4655L17.7306 89.9591M8.90205 87.4655L17.4063 85.6876M29.0951 86.9605L17.7306 89.9591M29.0951 86.9605L23.5294 85.6664M29.0951 86.9605L28.877 92.6737M17.7306 89.9591L16.6528 91.9003M16.6528 91.9003L17.0173 114.327M17.0173 114.327L16.0591 114.204M17.0173 114.327H18.1037M8.90205 108.898L10.1701 111.533L12.817 113.79L15.4568 114.127M8.90205 108.898C8.44401 108.658 7.98429 108.402 7.5317 108.123M36.719 18.6869C48.5017 22.6121 56.3191 30.7437 61.3247 40.6083C62.033 42.0041 62.6849 43.4345 63.2838 44.8926C69.2767 59.4825 69.9608 76.8443 68.6095 89.9591M36.719 18.6869L37.0202 18.6534M36.719 18.6869V55.7908M68.6095 89.9591L65.3688 89.3521M68.6095 89.9591L68.8933 89.7999M35.245 18.466V55.7908M35.245 18.466L37.0202 18.103M35.245 18.466C29.5032 18.466 21.9251 20.5855 16.2901 28.3298M35.245 55.7908C31.5519 56.2169 21.7882 59.8626 22.2479 74.8714M35.245 55.7908H36.719M70.4798 82.8729V83.4884M70.4798 82.8729L69.8069 82.5889C69.921 80.8339 69.8544 78.9853 69.8069 78.2803M70.4798 82.8729C70.5692 82.9171 70.7073 82.9664 70.8847 83.0053M72.7622 77.9489C71.9311 78.113 71.0528 77.9821 70.7176 77.8962M72.7622 77.9489C72.3578 77.8454 71.3827 77.6898 70.7176 77.8962M72.7622 77.9489V79.8901M8.46982 63.1453H7.81417M7.80839 73.6562L7.15853 72.8828V63.1453H7.81417M7.80839 73.6562H9.15713M7.80839 73.6562L7.81417 63.1453M33.6758 65.4652L48.3055 68.8584M33.6758 65.4652V70.762M33.6758 65.4652C34.0182 65.339 34.7329 65.2232 35.0475 65.1812L49.2809 68.6217M48.3055 68.8584L48.67 92.579M48.3055 68.8584L49.2809 68.6217M48.67 92.579L37.0763 89.3823M48.67 92.579H49.5821L49.2809 68.6217M16.2882 77.3977C15.119 78.0289 13.9861 78.7256 12.928 79.4956C7.15853 83.6936 1.07208 89.3121 2.11819 99.5231C2.59292 104.157 4.94589 106.527 7.5317 108.123M16.2882 77.3977L9.3934 75.8499C7.59049 60.0687 8.45457 48.4788 10.8475 40.0244M16.2882 77.3977C18.5144 76.1961 20.8723 75.2323 23.0965 74.4547M70.4798 83.4884V88.7123C70.8203 88.8123 71.7536 88.9522 72.7622 88.7123V85.6664M70.4798 83.4884L69.9885 89.1858L68.8933 89.7999M70.7176 77.8962C70.7176 66.1108 68.801 54.5782 64.8335 44.7669M70.7176 77.8962V78.6084M37.0202 18.103C32.6626 17.5612 22.4161 18.8479 16.2901 28.3298M37.0202 18.103V18.6534M16.2901 28.3298C15.2665 29.7365 14.3071 31.3288 13.4344 33.1276M8.68015 104.573L15.7018 107.73V107.272M8.68015 104.573L8.4424 90.5588L9.02885 90.7233M8.68015 104.573L9.15565 104.431M9.15565 104.431L9.14032 102.774M9.15565 104.431L12.683 105.962M9.02885 90.7233L15.7018 92.5947V105.757M9.02885 90.7233L9.04616 92.5947M15.7018 107.272L12.683 105.962M15.7018 107.272V106.893M10.6931 91.7109V92.5947L12.8487 93.1629M10.6931 91.7109L12.8487 92.3738M10.6931 91.7109L11.026 91.6478L13.1657 92.3264M12.8487 92.3738V93.1629M12.8487 92.3738L13.1657 92.3264M12.8487 93.1629L13.1657 93.1156V92.3264M9.04616 92.5947L9.66125 92.5158L15.1787 93.9678M9.04616 92.5947L14.7032 94.1262M9.04616 92.5947L9.06514 94.6464L9.10273 98.7103L9.12397 101.007L9.14032 102.774M14.7666 104.968L9.14032 102.774M14.7666 104.968H15.1787V93.9678M14.7666 104.968V102.885V100.423V96.0984V94.1414L14.7032 94.1262M15.1787 93.9678L14.7032 94.1262M12.683 105.962V104.573L13.1268 104.747M12.683 105.962L13.1268 105.836M15.7018 105.757L13.1268 104.747M15.7018 105.757V106.893M13.1268 105.836V104.747M13.1268 105.836L15.7018 106.893M34.0014 98.592C39.8501 98.7385 38.8357 109.071 33.5259 109.071M34.0014 98.592C28.1527 98.4454 26.8372 109.071 33.5259 109.071M34.0014 98.592C33.9188 98.5868 33.8286 98.5811 33.7328 98.5751M33.5259 109.071L31.2435 108.898C31.0819 108.898 30.9246 108.891 30.7716 108.879M29.4049 98.7269L26.443 98.4184M29.4049 98.7269C28.636 99.0453 28.0105 99.5891 27.5385 100.265M29.4049 98.7269C29.8227 98.5539 30.2829 98.4474 30.7838 98.4225M26.443 98.4184C27.2433 97.2863 28.1295 96.7018 28.7306 96.5087L28.877 92.6737M26.443 98.4184C26.1344 98.8548 25.8386 99.3726 25.5768 99.9808M27.3285 107.335L24.4817 106.767M27.3285 107.335C28.0337 108.216 29.359 108.768 30.7716 108.879M27.3285 107.335C26.0591 105.75 26.1735 103.242 26.9646 101.322M24.4817 106.767C24.5255 106.202 24.5583 105.602 24.5778 104.968C24.6242 103.465 24.84 102.199 25.157 101.141M24.4817 106.767C24.1939 110.487 23.4335 112.737 22.8666 113.79M7.5317 108.123V114.642L15.4568 117.136M15.4568 117.136V114.127M15.4568 117.136H18.7694V114.327M15.4568 114.127L16.0591 114.204M18.7694 114.327H22.5173C22.6185 114.208 22.7375 114.03 22.8666 113.79M18.7694 114.327H18.1037M33.1931 71.2601C32.9139 71.4826 32.5715 71.6668 32.1542 71.7939C30.515 72.2928 27.0129 73.0853 23.0965 74.4547M33.1931 71.2601L43.0677 73.6404M33.1931 71.2601C33.3817 71.1097 33.5414 70.9417 33.6758 70.762M43.0677 73.6404C41.792 73.8561 38.812 74.8649 36.4582 75.7078C32.8444 77.002 24.8242 77.7437 17.4063 85.6876M43.0677 73.6404V73.8143M43.0677 89.7605C44.2325 90.0852 45.3666 90.4486 46.245 90.7167V70.484L34.1038 67.4538C34.3679 68.085 34.5086 69.6486 33.6758 70.762M43.0677 89.7605C41.1008 89.2121 39.0462 88.7739 37.987 89.0911C37.7174 89.1719 37.4086 89.2712 37.0763 89.3823M43.0677 89.7605V87.3228M17.4063 85.6876L20.6787 85.0035L21.6383 85.2267M37.0763 89.3823C35.3305 89.966 32.9354 90.8751 32.1542 91.127C32.9974 93.3118 33.615 95.9119 33.7328 98.5751M81.529 81.8787C80.1432 93.5723 74.6892 110.765 72.0648 118.083L139.165 100.628M81.529 81.8787L78.0489 82.2574V81.4052M75.2435 81.2632L78.0489 80.8844V81.4052M75.2435 81.2632V85.6664H72.7622M75.2435 81.2632L72.7622 81.4052M72.7622 85.6664V84.968M71.1224 88.823L72.0417 89.9591H76.3688C75.4596 95.2146 68.6095 119.061 68.6095 119.061L70.7176 122.186M70.7176 122.186V126.874M70.7176 122.186L71.0907 122.344M70.7176 122.186L79.7924 119.73M134.333 104.968L132.225 104.668L132.89 104.558M134.333 104.968V108.566M134.333 104.968L80.2521 119.606L79.7924 119.73M70.7176 126.874L30.2925 113.79M70.7176 126.874L71.0907 127M138.866 103.69C138.866 102.269 139.658 100.963 141.212 100.628M138.866 103.69L136.599 104.329L134.792 104.838M138.866 103.69L136.705 103.467M134.792 104.838V108.767M134.792 104.838L132.89 104.558M134.792 108.767L191.774 92.5158V89.2331C191.638 88.7438 191.287 87.8014 190.189 87.858M134.792 108.767L134.333 108.566M141.212 100.628C142.31 100.391 142.933 100.994 143.248 101.591M141.212 100.628H139.165M188.191 90.2004L143.494 102.269C143.457 102.084 143.379 101.838 143.248 101.591M188.191 90.2004C188.207 89.5097 188.763 88.0526 190.006 87.8759C190.069 87.8669 190.13 87.861 190.189 87.858M188.191 90.2004L186.416 90.0223M186.416 90.0223C186.686 89.3331 187.44 87.939 188.302 87.8759C189.165 87.8128 189.919 87.8376 190.189 87.858M186.416 90.0223L143.248 101.591M139.165 100.628C137.628 100.738 136.946 102.256 136.705 103.467M136.705 103.467L132.89 104.558M134.333 108.566V108.898L80.2521 124.179M56.4452 11.7487L49.6549 12.2914M64.608 11.0957L76.5432 10.142M22.8666 113.79C23.7763 113.537 24.6177 113.238 25.3948 112.898M33.7328 98.5751C32.762 98.5142 31.2133 98.4184 31.1325 98.4184C31.0142 98.4154 30.898 98.4168 30.7838 98.4225M30.7716 108.879C30.7204 108.944 30.6684 109.008 30.6157 109.071C30.511 109.198 30.4033 109.322 30.2925 109.446M30.2925 113.79V109.446M30.2925 113.79L29.3098 113.553C26.9766 114.223 25.5903 113.522 25.3948 112.898M30.2925 113.79L28.3271 113.317V111.224M62.1195 119.503V123.78L68.9985 125.99M62.1195 119.503L68.9985 122.013M62.1195 119.503L62.5316 119.424L69.268 121.918M68.9985 122.013V125.99M68.9985 122.013L69.268 121.918M68.9985 125.99H69.3314L69.268 121.918M62.9755 123.575V120.592L63.3717 120.73M62.9755 123.575L68.0316 125.201V124.995M62.9755 123.575L63.3717 123.496M63.3717 123.496V120.73M63.3717 123.496L68.0316 124.995M63.3717 120.73L68.0316 122.344V124.995M71.0907 127L80.2521 124.506V124.179M71.0907 127V122.344M71.0907 122.344L80.2521 119.898M80.2521 119.898L79.7924 119.73M80.2521 119.898V124.179M70.0763 41.1765V45.4061M70.0763 41.1765C70.5095 41.2502 71.5599 41.3533 72.2953 41.1765M70.0763 41.1765L70.0412 41.173M72.2953 41.1765V45.4061M72.2953 41.1765C71.2556 40.9997 70.3593 41.1005 70.0412 41.173M72.2953 41.1765L65.9349 40.5524M61.9452 40.3558C62.3362 41.1765 63.8631 44.6486 63.8631 44.6486L64.8335 44.7669M61.9452 40.3558L62.4841 40.2138L62.7954 40.2443M61.9452 40.3558L70.0412 41.173M70.0763 45.4061V53.3792C70.1865 53.4132 70.3618 53.4518 70.5835 53.4787M70.0763 45.4061C70.4144 45.5271 71.3316 45.6965 72.2953 45.4061M70.0763 45.4061L67.5827 45.1021M72.2953 45.4061V48.6099M72.7622 82.8729C72.2617 83.0419 71.8029 83.0874 71.4236 83.0724C71.2188 83.0644 71.0372 83.0387 70.8847 83.0053M72.7622 82.8729V81.4052M72.7622 82.8729V84.2697M70.5835 53.4787V53.9127C70.9893 54.039 71.5265 53.9653 71.7444 53.9127V53.4787M70.5835 53.4787C70.8957 53.5167 71.2999 53.5317 71.7444 53.4787M71.7444 53.4787C71.9227 53.4575 72.1074 53.4253 72.2953 53.3792V49.904M65.9349 40.5524L62.7954 40.2443M67.5827 45.1021L64.8335 44.7669M62.7954 40.2443C57.526 29.717 49.5607 21.7313 38.7003 18.466L38.621 18.4748L37.0202 18.6534M13.4344 33.1276C13.3762 33.2477 13.3183 33.3687 13.2608 33.4906M13.4344 33.1276L7.80115 32.5522M6.59654 32.7015L7.5634 32.5279L7.80115 32.5522M6.59654 32.7015L13.2608 33.4906M6.59654 32.7015V35.8895L7.80115 36.079M13.2608 33.4906C12.7832 34.5038 12.3327 35.5811 11.9133 36.7259M11.9133 36.7259L7.80115 36.079M11.9133 36.7259C11.7679 37.1228 11.6262 37.5279 11.4884 37.9412M7.80115 32.5522V32.1333M7.80115 32.1333C6.97694 32.3353 6.05235 32.2175 5.69308 32.1333M7.80115 32.1333C7.45244 32.0439 6.54265 31.9187 5.69308 32.1333M5.69308 32.1333V41.3501C5.8188 41.4013 5.94632 41.4403 6.07348 41.4692M7.80115 36.079V37.4747M6.07348 41.4692V42.2023C6.37781 42.4801 7.07646 42.3181 7.38775 42.2023V41.4692M6.07348 41.4692C6.55684 41.579 7.03487 41.5419 7.38775 41.4692M7.38775 41.4692C7.56002 41.4337 7.70247 41.3897 7.80115 41.3501V38.7146M11.4884 37.9412C11.2642 38.6135 11.0504 39.3077 10.8475 40.0244M11.4884 37.9412L7.80115 37.4747M10.8475 40.0244L7.24639 38.5251V37.4046L7.80115 37.4747M42.4654 13.321L44.3851 13.2182C44.3917 13.0663 44.4154 12.8894 44.4631 12.7063M42.4654 13.321C42.4699 13.1829 42.4847 13.028 42.5121 12.8623C42.7113 11.6578 43.7179 9.88224 46.0809 9.84894M42.4654 13.321L41.9698 13.179C41.9672 13.0857 41.9602 13.024 41.9698 12.9171M46.0809 9.84894C48.2917 9.81779 49.2375 11.2148 49.6549 12.2914M46.0809 9.84894C42.9881 9.84894 42.0756 11.7376 41.9698 12.9171M46.1268 11.364C45.0873 11.3547 44.6293 12.0679 44.4631 12.7063M46.1268 11.364C47.1053 11.3728 47.5634 11.9212 47.7482 12.4438C47.8236 12.6572 47.8535 12.8662 47.8546 13.0325L49.8357 12.9265C49.8038 12.7415 49.745 12.5239 49.6549 12.2914M46.1268 11.364C46.8657 11.4572 47.1901 12.0083 47.3073 12.479M44.4631 12.7063L47.3073 12.479M47.8069 13.0325L47.3789 12.8623C47.3803 12.7394 47.349 12.6464 47.3073 12.479M146.949 4.51557L146.442 4.5561M155.746 3.81258L158.416 3.59921L173.156 4.52087M73.7535 16.3512C73.8592 15.299 74.5048 13.1443 76.242 12.9422M73.7535 16.3512L72.8025 16.2174C72.9293 14.0079 74.5038 13.0632 75.0691 12.8476L76.242 12.9422M73.7535 16.3512L74.8313 16.2565C74.8499 15.7346 75.1392 14.7988 75.628 14.2679M76.242 12.9422C77.9792 12.7402 78.3184 14.7625 78.2708 15.7988L77.5893 15.8822M77.5893 15.8822C77.5893 15.0259 77.3832 13.8103 76.353 13.8734C76.079 13.8902 75.8355 14.0426 75.628 14.2679M77.5893 15.8822C77.5512 15.8873 76.8232 15.8603 76.4639 15.8462C76.4667 15.2044 76.3034 13.9902 75.628 14.2679M171.47 7.57631C171.47 6.64517 171.765 4.67856 174.513 4.53036M171.47 7.57631L170.423 7.46584C170.419 6.50153 170.997 4.79249 173.156 4.52087M171.47 7.57631L172.849 7.42508C172.748 6.84811 172.951 5.69851 174.196 5.46937M174.513 4.53036C174.003 4.46958 173.553 4.47094 173.156 4.52087M174.513 4.53036C175.097 4.49883 175.544 4.5632 175.885 4.69157M175.717 7.11044L176.938 6.97659C176.979 6.31722 177.051 5.13042 175.885 4.69157M175.717 7.11044C175.717 6.47156 175.797 5.40138 174.592 5.42994C174.45 5.43332 174.318 5.44693 174.196 5.46937M175.717 7.11044L174.877 6.97659C174.877 6.51891 174.919 5.5893 174.196 5.46937M141.766 4.92976L79.7607 9.88483M69.8069 78.2803L70.4798 78.5171C70.5574 78.5551 70.6377 78.585 70.7176 78.6084M69.8069 78.2803L70.7176 78.0752M70.8847 83.0053V78.6485C70.8299 78.6381 70.7738 78.6249 70.7176 78.6084M36.719 55.7908V56.2169C42.6681 58.2738 54.1732 67.3023 52.6009 86.9605L65.3688 89.3521M36.719 55.7908C25.7276 57.1007 23.0965 67.4538 23.0965 74.4547M65.3688 89.3521V94.315L69.9885 95.546L69.8069 89.9591L68.8933 89.7999M25.5768 99.9808L27.5385 100.265M25.5768 99.9808C25.4239 100.336 25.2825 100.722 25.157 101.141M27.5385 100.265C27.3113 100.59 27.1196 100.946 26.9646 101.322M26.9646 101.322L25.157 101.141M30.2925 109.446C29.7211 110.082 29.0685 110.678 28.3271 111.224M25.3948 112.898C26.498 112.416 27.4716 111.853 28.3271 111.224M21.6383 85.2267L23.5294 85.6664M21.6383 85.2267L43.0677 73.8143M23.5294 85.6664L43.0677 75.3037M43.0677 73.8143L44.6686 72.9618C45.3184 72.9618 45.5562 74.0349 44.6686 74.4547L43.0677 75.3037M43.0677 75.3037V77.6894M40.3256 77.728L43.0677 77.6894M40.3256 77.728C39.9663 78.2646 39.2573 79.6187 39.2954 80.7424C39.3334 81.866 39.9252 82.7362 40.2164 83.0308M40.3256 77.728C40.3978 77.7536 40.4773 77.78 40.5634 77.8065M44.8112 77.6648L44.6686 86.9605C44.3373 87.2204 43.7403 87.3174 43.0677 87.3228M44.8112 77.6648L43.0677 77.6894M44.8112 77.6648C43.5931 78.4579 41.605 78.127 40.5634 77.8065M43.0677 87.3228C42.0408 87.331 40.8377 87.1258 40.1354 86.9605L40.2164 83.0308M40.2164 83.0308H40.5634M40.5634 77.8065C40.2833 78.238 39.515 79.2793 39.5331 80.7424C39.5494 82.0602 40.1882 82.8151 40.5634 83.0308M40.5634 77.8065V83.0308M39.3905 80.2136L38.7882 80.0479C38.6825 80.1005 38.5029 80.3131 38.6297 80.7424L39.3112 80.9396M28.877 92.6737H32.4798M28.877 92.6737C29.185 92.8262 29.9977 93.1345 30.7838 93.1471C31.57 93.1597 32.242 92.8367 32.4798 92.6737M32.4798 92.6737V93.3523C32.2838 93.4867 31.7927 93.7298 31.1858 93.804M28.877 93.3523C29.0822 93.4539 29.5112 93.6246 30.0072 93.731M30.451 93.804C30.5615 93.8163 30.6729 93.824 30.7838 93.8258C30.9219 93.828 31.0565 93.8198 31.1858 93.804M30.451 93.804C30.4563 94.9739 30.3749 97.5346 30.0072 98.4184V93.731M30.451 93.804C30.3 93.7872 30.1508 93.7618 30.0072 93.731M31.1858 93.804C31.242 94.8241 31.2403 97.1759 30.7838 98.4225M91.3313 10.5907C91.9812 11.1273 108.766 11.8848 109.987 11.3798M91.3313 10.5907V11.0957C91.9812 11.6323 108.766 12.3899 109.987 11.8848V11.3798M91.3313 10.5907C91.534 10.452 94.3348 10.482 97.7123 10.5953M109.987 11.3798C109.486 11.2231 106.898 11.0279 103.801 10.8611M100.112 10.859V11.0642C99.1486 11.1273 97.3121 10.9537 96.5143 10.859V10.6223M100.112 10.859C99.529 10.6949 97.4706 10.6328 96.5143 10.6223M100.112 10.859C99.8089 10.8535 99.3762 10.8415 98.9077 10.8218M96.5143 10.6223C96.8181 10.6808 97.1831 10.7286 97.7031 10.7643M104.962 11.1589C104.091 11.1431 102.151 11.0736 101.364 10.9221M104.962 11.1589C104.379 10.9947 102.321 10.9327 101.364 10.9221M104.962 11.1589V11.364C103.999 11.4272 102.162 11.2536 101.364 11.1589V10.9221M97.7031 10.7643C98.0607 10.7888 98.5501 10.8068 98.9077 10.8218M97.7031 10.7643L97.7123 10.5953M97.814 8.72841C98.0148 8.64424 98.5463 8.58953 99.0028 8.79154M97.814 8.72841C97.9884 8.7705 98.4829 8.89254 99.0028 8.79154M97.814 8.72841L97.7123 10.5953M99.0028 8.79154L98.9163 10.6383M98.9077 10.8218L98.9163 10.6383M102.585 11.0571L102.599 10.799M102.696 9.02118C102.897 8.93701 103.428 8.87361 103.885 9.07562M102.696 9.02118C102.96 9.07142 103.58 9.1962 103.885 9.07562M102.696 9.02118L102.599 10.799M103.885 9.07562L103.801 10.8611M103.79 11.1146L103.801 10.8611M98.9163 10.6383C100.131 10.6842 101.387 10.7389 102.599 10.799M72.7622 81.4052V79.8901M72.7622 84.2697H73.9913C74.0811 84.2933 74.2481 84.4227 74.1973 84.751C74.1466 85.0793 74.0388 85.0351 73.9913 84.972L72.7622 84.968M72.7622 84.2697V84.968M74.9265 45.4061V49.904M74.9265 45.4061L76.0618 45.3118L78.5878 45.1021M74.9265 45.4061L72.7233 45.1021M74.9265 49.904L77.3542 49.7052M74.9265 49.904L73.5819 49.721M78.5878 45.1021L76.5115 44.7669L75.9099 44.8201M78.5878 45.1021V45.6271M77.3542 49.7052L78.5878 49.6042V47.0159L81.2348 46.8581V45.6271M72.7233 45.1021L75.9099 44.8201M72.7233 45.1021V48.5679M81.2348 45.6271L78.5878 45.8322V45.6271M81.2348 45.6271L80.0936 45.5008L78.5878 45.6271M72.2953 48.8624L74.4034 48.6099M72.2953 48.8624V49.904M72.2953 48.8624V48.6099M74.4034 48.6099V49.6042L73.5819 49.721M74.4034 48.6099L73.5819 48.4836L72.7233 48.5679M72.2953 49.904L73.5819 49.721M72.2953 48.6099L72.7233 48.5679M16.0591 114.204V116.015H18.1037V114.327M12.8329 102.241V95.6059L11.3271 95.2225V101.74L12.8329 102.241ZM9.52021 94.7623V98.8365L10.8041 99.2247V95.0893L9.52021 94.7623ZM34.1124 100.091C37.987 100.091 37.3308 107.665 33.7328 107.793C29.2789 107.951 29.7976 100.091 34.1124 100.091ZM34.0014 102.68C35.2219 102.68 35.1902 105.126 33.8271 105.126C32.464 105.126 32.781 102.68 34.0014 102.68ZM72.8342 122.786V125.264L79.5071 123.37V120.939L72.8342 122.786ZM141.212 102.411C142.179 102.209 142.593 104.308 141.37 104.621C140.197 104.921 140.308 102.601 141.212 102.411ZM190.093 89.2575C191.06 89.0548 191.316 91.2018 190.093 91.5143C189.174 91.7493 189.127 89.4601 190.093 89.2575Z" stroke="#121212" stroke-width="0.259295" stroke-linejoin="round"/>
<path d="M114.694 7.45217C114.694 6.97873 121.462 6.99447 121.462 7.45217M114.694 7.45217C114.695 7.92561 121.462 7.75201 121.462 7.45217M114.694 7.45217V7.87826C114.694 8.01744 115.279 8.1007 116.105 8.14128M121.462 7.45217V7.87826C121.462 7.9703 120.825 8.05044 119.941 8.10362M114.694 11.2556C114.695 11.7291 121.462 11.5555 121.462 11.2556M114.694 11.2556V11.7765C114.695 12.2499 121.462 12.0763 121.462 11.7765V11.2556M114.694 11.2556C114.694 11.1165 115.279 11.0195 116.105 10.9637M121.462 11.2556C121.462 11.1152 120.825 11.0163 119.941 10.9605M116.105 8.14128C117.226 8.19636 118.792 8.17278 119.941 8.10362M116.105 8.14128V10.9637M119.941 8.10362V10.9605M116.105 10.9637V11.2083C116.942 11.3724 119.011 11.2767 119.941 11.2083V10.9605" stroke="#121212" stroke-width="0.259295"/>
<path d="M56.4609 11.5123C56.4606 10.8835 67.4926 10.9044 67.4926 11.5123M56.4609 11.5123C56.4613 12.1411 67.4926 11.9105 67.4926 11.5123M56.4609 11.5123V12.0782C56.461 12.2631 57.4144 12.3737 58.7606 12.4276M67.4926 11.5123V12.0782C67.4926 12.2005 66.4534 12.3069 65.0128 12.3775M56.4609 16.5639C56.4613 17.1927 67.4926 16.9621 67.4926 16.5639M56.4609 16.5639V17.2556C56.4613 17.8844 67.4926 17.6538 67.4926 17.2556V16.5639M56.4609 16.5639C56.4608 16.379 57.4143 16.2503 58.7606 16.1762M67.4926 16.5639C67.4926 16.3773 66.4534 16.246 65.0128 16.1718M58.7606 12.4276C60.5882 12.5007 63.1397 12.4694 65.0128 12.3775M58.7606 12.4276V16.1762M65.0128 12.3775V16.1718M58.7606 16.1762V16.501C60.1247 16.719 63.4971 16.5918 65.0128 16.501V16.1718" stroke="#121212" stroke-width="0.259295"/>
<path d="M76.3682 9.99406C76.3681 9.66913 79.9344 9.67993 79.9344 9.99406M76.3682 9.99406C76.3682 10.319 79.9344 10.1998 79.9344 9.99406M76.3682 9.99406V10.2865C76.3682 10.382 77.3826 10.5435 77.6654 10.5435M79.9344 9.99406V10.2865C79.9344 10.3497 78.8408 10.5435 78.5637 10.5435M79.9344 15.0935V15.4509C79.9344 15.551 79.1215 15.6306 78.286 15.6486M79.9344 15.0935C79.9344 14.9971 78.8883 14.8909 78.5637 14.8909M79.9344 15.0935C79.9344 15.1936 79.1215 15.2731 78.286 15.2911M77.6654 10.5435C77.928 10.5813 78.2702 10.5593 78.5637 10.5435M77.6654 10.5435V13.479M78.5637 10.5435V14.8909M78.5637 14.8909V15.061C78.4865 15.0777 78.3911 15.0914 78.286 15.099" stroke="#121212" stroke-width="0.259295"/>
<path d="M144.683 3.52657C144.682 2.89777 155.714 2.91868 155.714 3.52657M144.683 3.52657C144.683 4.15537 155.714 3.9248 155.714 3.52657M144.683 3.52657V4.09248C144.683 4.27733 145.636 4.38791 146.982 4.4418M155.714 3.52657V4.09248C155.714 4.21471 154.675 4.32115 153.234 4.39179M144.683 8.57813C144.683 9.20693 155.714 8.97636 155.714 8.57813M144.683 8.57813V9.26984C144.683 9.89864 155.714 9.66807 155.714 9.26984V8.57813M144.683 8.57813C144.683 8.39326 145.636 8.26456 146.982 8.19041M155.714 8.57813C155.714 8.39155 154.675 8.26027 153.234 8.18609M146.982 4.4418C148.81 4.51496 151.361 4.48364 153.234 4.39179M146.982 4.4418V8.19041M153.234 4.39179V8.18609M146.982 8.19041V8.51524C148.346 8.73324 151.719 8.60607 153.234 8.51524V8.18609" stroke="#121212" stroke-width="0.259295"/>
<path d="M124.775 6.50527C124.775 6.03183 131.543 6.04757 131.543 6.50527M124.775 6.50527C124.776 6.97871 131.543 6.80511 131.543 6.50527M124.775 6.50527V6.93136C124.775 7.07054 125.36 7.15381 126.186 7.19438M131.543 6.50527V6.93136C131.543 7.0234 130.906 7.10354 130.022 7.15672M124.775 10.3087C124.776 10.7822 131.543 10.6086 131.543 10.3087M124.775 10.3087V10.8296C124.776 11.303 131.543 11.1294 131.543 10.8296V10.3087M124.775 10.3087C124.775 10.1696 125.36 10.0726 126.186 10.0168M131.543 10.3087C131.543 10.1683 130.906 10.0694 130.022 10.0136M126.186 7.19438C127.307 7.24946 128.873 7.22588 130.022 7.15672M126.186 7.19438V10.0168M130.022 7.15672V10.0136M126.186 10.0168V10.2614C127.023 10.4255 129.092 10.3298 130.022 10.2614V10.0136" stroke="#121212" stroke-width="0.259295"/>
<path d="M142.655 5.88756C142.655 5.00903 143.07 3.2046 144.731 3.01521M142.655 5.88756L141.656 5.66661C141.63 4.73021 142.208 2.88896 144.731 3.01521M142.655 5.88756L143.859 5.68512C143.824 5.22963 143.898 4.39335 144.382 4.1167M144.731 3.01521C145.195 2.96231 145.541 3.04939 145.796 3.22038M146.443 4.46717C146.461 4.7198 146.443 5.05785 146.411 5.25628L145.555 5.38254M144.731 4.02527C144.596 4.0274 144.481 4.06051 144.382 4.1167M145.555 5.38254L144.794 5.19315C144.784 4.80168 144.712 3.96258 144.382 4.1167M145.555 5.38254C145.555 5.10409 145.545 4.63264 145.338 4.32513" stroke="#121212" stroke-width="0.259295"/>
</svg>
