<svg width="55" height="55" viewBox="0 0 55 55" fill="none" xmlns="http://www.w3.org/2000/svg">
<path d="M50.4178 38.7749V45.6499C50.4203 46.2881 50.2896 46.9199 50.0339 47.5047C49.7782 48.0894 49.4032 48.6144 48.9329 49.0458C48.4626 49.4773 47.9074 49.8058 47.3028 50.0103C46.6982 50.2147 46.0576 50.2907 45.4219 50.2332C38.3701 49.467 31.5963 47.0573 25.6448 43.1978C20.1078 39.6793 15.4133 34.9849 11.8948 29.4478C8.02187 23.4693 5.61164 16.6626 4.85942 9.57906C4.80215 8.94534 4.87747 8.30664 5.08057 7.70362C5.28367 7.1006 5.6101 6.54648 6.03909 6.07653C6.46808 5.60658 6.99022 5.23111 7.57228 4.97401C8.15433 4.71691 8.78354 4.58383 9.41984 4.58323H16.2948C17.407 4.57228 18.4852 4.96612 19.3285 5.69133C20.1717 6.41653 20.7225 7.42363 20.8782 8.5249C21.1683 10.725 21.7065 12.8853 22.4823 14.9645C22.7907 15.7847 22.8574 16.6762 22.6746 17.5332C22.4919 18.3902 22.0672 19.1768 21.4511 19.7999L18.5407 22.7103C21.803 28.4476 26.5534 33.198 32.2907 36.4603L35.2011 33.5499C35.8242 32.9338 36.6108 32.5091 37.4678 32.3264C38.3248 32.1436 39.2163 32.2103 40.0365 32.5186C42.1157 33.2945 44.2759 33.8326 46.4761 34.1228C47.5893 34.2799 48.606 34.8406 49.3327 35.6983C50.0595 36.5561 50.4456 37.651 50.4178 38.7749Z" stroke="#E50023" stroke-width="2" stroke-linecap="round" stroke-linejoin="round"/>
</svg>
