<svg width="57" height="56" viewBox="0 0 57 56" fill="none" xmlns="http://www.w3.org/2000/svg">
<path d="M52.0834 25.6667V28C52.0598 32.7094 50.6117 37.3015 47.9294 41.1725C45.2471 45.0435 41.4563 48.0122 37.0552 49.6884C32.6541 51.3646 27.8489 51.6699 23.2711 50.5639C18.6933 49.458 14.5573 46.9928 11.4068 43.4922C8.25634 39.9917 6.23887 35.6198 5.61961 30.9512C5.00035 26.2826 5.8083 21.5359 7.93725 17.3351C10.0662 13.1343 13.4165 9.67604 17.5476 7.41495C21.6788 5.15385 26.3975 4.19577 31.0834 4.66666M19.4167 32.6667C19.4167 32.6667 22.9167 37.3333 28.7501 37.3333C34.5834 37.3333 38.0834 32.6667 38.0834 32.6667M21.7501 21H21.7734M35.7501 21H35.7734M38.0834 11.6667H52.0834M45.0834 4.66666V18.6667" stroke="#E50023" stroke-width="3" stroke-linecap="round" stroke-linejoin="round"/>
</svg>
