<svg width="57" height="56" viewBox="0 0 57 56" fill="none" xmlns="http://www.w3.org/2000/svg">
<path d="M36.363 30.41L39.898 50.304C39.9376 50.5383 39.9047 50.779 39.8038 50.9941C39.7029 51.2092 39.5387 51.3883 39.3332 51.5075C39.1277 51.6268 38.8907 51.6804 38.6539 51.6613C38.4171 51.6422 38.1917 51.5513 38.008 51.4007L29.6547 45.131C29.2514 44.8297 28.7615 44.667 28.2582 44.667C27.7548 44.667 27.2649 44.8297 26.8617 45.131L18.4943 51.3983C18.3107 51.5487 18.0857 51.6395 17.8492 51.6586C17.6126 51.6777 17.3759 51.6243 17.1705 51.5054C16.9652 51.3865 16.801 51.2078 16.6998 50.9931C16.5986 50.7785 16.5653 50.5381 16.6043 50.304L20.137 30.41M42.25 19C42.25 26.732 35.982 33 28.25 33C20.518 33 14.25 26.732 14.25 19C14.25 11.268 20.518 5 28.25 5C35.982 5 42.25 11.268 42.25 19Z" stroke="#E50023" stroke-width="3" stroke-linecap="round" stroke-linejoin="round"/>
</svg>
