<svg width="57" height="56" viewBox="0 0 57 56" fill="none" xmlns="http://www.w3.org/2000/svg">
<path d="M26.417 39.6667L31.0837 44.3333C31.5433 44.793 32.0889 45.1576 32.6895 45.4063C33.29 45.6551 33.9337 45.7831 34.5837 45.7831C35.2337 45.7831 35.8773 45.6551 36.4778 45.4063C37.0784 45.1576 37.624 44.793 38.0837 44.3333C38.5433 43.8737 38.9079 43.3281 39.1566 42.7275C39.4054 42.127 39.5334 41.4834 39.5334 40.8333C39.5334 40.1833 39.4054 39.5397 39.1566 38.9392C38.9079 38.3386 38.5433 37.793 38.0837 37.3333M33.417 32.6667L39.2503 38.5C40.1786 39.4283 41.4376 39.9498 42.7503 39.9498C44.0631 39.9498 45.3221 39.4283 46.2503 38.5C47.1786 37.5718 47.7001 36.3128 47.7001 35C47.7001 33.6873 47.1786 32.4283 46.2503 31.5L37.197 22.4467C35.8845 21.1358 34.1053 20.3995 32.2503 20.3995C30.3953 20.3995 28.6162 21.1358 27.3037 22.4467L25.2503 24.5C24.3221 25.4283 23.0631 25.9498 21.7503 25.9498C20.4376 25.9498 19.1786 25.4283 18.2503 24.5C17.3221 23.5718 16.8006 22.3128 16.8006 21C16.8006 19.6873 17.3221 18.4283 18.2503 17.5L24.807 10.9433C26.9356 8.82035 29.7114 7.46797 32.6952 7.10028C35.6789 6.7326 38.7 7.37062 41.2803 8.91335L42.377 9.56668C43.3705 10.1663 44.5518 10.3743 45.6903 10.15L49.7503 9.33335M49.7503 7.00002L52.0837 32.6667H47.417M7.75033 7.00002L5.41699 32.6667L20.5837 47.8333C21.5119 48.7616 22.7709 49.2831 24.0837 49.2831C25.3964 49.2831 26.6554 48.7616 27.5837 47.8333C28.5119 46.9051 29.0334 45.6461 29.0334 44.3333C29.0334 43.0206 28.5119 41.7616 27.5837 40.8333M7.75033 9.33335H26.417" stroke="#E50023" stroke-width="3" stroke-linecap="round" stroke-linejoin="round"/>
</svg>
