<svg width="56" height="56" viewBox="0 0 56 56" fill="none" xmlns="http://www.w3.org/2000/svg">
<g clip-path="url(#clip0_7706_14983)">
<path d="M10.6939 40.4156C8.29052 37.863 7.00018 35 7.00018 30.359C7.00018 22.1923 12.7332 14.8726 21.0702 11.2536L23.1539 14.469C15.3722 18.6783 13.8509 24.1406 13.2442 27.5846C14.4972 26.936 16.1375 26.7096 17.7452 26.859C21.9545 27.2486 25.2725 30.7043 25.2725 35C25.2725 37.1659 24.4121 39.2431 22.8806 40.7747C21.349 42.3062 19.2718 43.1666 17.1058 43.1666C14.6022 43.1666 12.2082 42.0233 10.6939 40.4156ZM34.0272 40.4156C31.6238 37.863 30.3335 35 30.3335 30.359C30.3335 22.1923 36.0665 14.8726 44.4035 11.2536L46.4872 14.469C38.7055 18.6783 37.1842 24.1406 36.5775 27.5846C37.8305 26.936 39.4708 26.7096 41.0785 26.859C45.2878 27.2486 48.6035 30.7043 48.6035 35C48.6035 37.1659 47.7431 39.2431 46.2116 40.7747C44.68 42.3062 42.6028 43.1666 40.4368 43.1666C37.9332 43.1666 35.5392 42.0233 34.0248 40.4156H34.0272Z" fill="#E3E3E3"/>
</g>
<defs>
<clipPath id="clip0_7706_14983">
<rect width="56" height="56" fill="white" transform="matrix(-1 0 0 -1 56 56)"/>
</clipPath>
</defs>
</svg>
