<svg width="32" height="32" viewBox="0 0 32 32" fill="none" xmlns="http://www.w3.org/2000/svg">
<path d="M29.3337 16.0001H26.027C25.4443 15.9988 24.8772 16.1885 24.4125 16.54C23.9478 16.8916 23.611 17.3857 23.4537 17.9467L20.3203 29.0934C20.3001 29.1627 20.258 29.2235 20.2003 29.2667C20.1426 29.31 20.0724 29.3334 20.0003 29.3334C19.9282 29.3334 19.858 29.31 19.8003 29.2667C19.7426 29.2235 19.7005 29.1627 19.6803 29.0934L12.3203 2.90675C12.3001 2.83751 12.258 2.77669 12.2003 2.73341C12.1426 2.69014 12.0724 2.66675 12.0003 2.66675C11.9282 2.66675 11.858 2.69014 11.8003 2.73341C11.7426 2.77669 11.7005 2.83751 11.6803 2.90675L8.54699 14.0534C8.39028 14.6123 8.0555 15.1048 7.59348 15.4561C7.13145 15.8074 6.56742 15.9984 5.98699 16.0001H2.66699" stroke="#E50023" stroke-width="2" stroke-linecap="round" stroke-linejoin="round"/>
</svg>
